<?xml version="1.0" standalone="no"?>
<!DOCTYPE svg PUBLIC "-//W3C//DTD SVG 20010904//EN"
 "http://www.w3.org/TR/2001/REC-SVG-20010904/DTD/svg10.dtd">
<svg version="1.0" xmlns="http://www.w3.org/2000/svg"
 width="250.000000pt" height="250.000000pt" viewBox="0 0 250.000000 250.000000"
 preserveAspectRatio="xMidYMid meet">
<metadata>
Created by potrace 1.14, written by Peter Selinger 2001-2017
</metadata>
<g transform="translate(0.000000,250.000000) scale(0.100000,-0.100000)"
fill="#000000" stroke="none">
<path d="M80 1250 l0 -390 1170 0 1170 0 0 390 0 390 -1170 0 -1170 0 0 -390z
m310 57 c0 -106 4 -157 12 -165 16 -16 130 -16 146 0 8 8 12 59 12 165 l0 153
65 0 65 0 0 -167 0 -167 -42 -43 -42 -43 -130 0 -130 0 -38 37 -38 37 0 173 0
173 60 0 60 0 0 -153z m1070 108 l0 -44 -72 -3 -73 -3 -3 -162 -2 -163 -60 0
-60 0 -2 163 -3 162 -72 3 -73 3 0 44 0 45 210 0 210 0 0 -45z m740 9 c40 -36
40 -36 40 -112 0 -74 -1 -77 -37 -114 l-37 -38 -113 0 -113 0 0 -60 0 -60 -60
0 -60 0 0 210 0 210 170 0 170 0 40 -36z"/>
<path d="M1947 1363 c-4 -3 -7 -30 -7 -60 l0 -53 73 0 c83 0 97 8 97 60 0 20
-5 41 -12 48 -13 13 -140 17 -151 5z"/>
</g>
</svg>
