<?xml version="1.0" standalone="no"?>
<!DOCTYPE svg PUBLIC "-//W3C//DTD SVG 20010904//EN"
 "http://www.w3.org/TR/2001/REC-SVG-20010904/DTD/svg10.dtd">
<svg version="1.0" xmlns="http://www.w3.org/2000/svg"
 width="512.000000pt" height="512.000000pt" viewBox="0 0 512.000000 512.000000"
 preserveAspectRatio="xMidYMid meet">
<metadata>
Created by potrace 1.14, written by Peter Selinger 2001-2017
</metadata>
<g transform="translate(0.000000,512.000000) scale(0.100000,-0.100000)"
fill="#000000" stroke="none">
<path d="M779 5062 c-125 -130 -210 -232 -203 -243 4 -7 3 -9 -4 -6 -5 4 -34
-21 -64 -55 -29 -34 -77 -88 -105 -119 -54 -57 -65 -76 -37 -65 9 3 12 2 9 -5
-4 -6 -13 -8 -21 -5 -8 3 -26 -8 -42 -26 -15 -18 -41 -47 -58 -65 -16 -17 -55
-60 -85 -94 -30 -34 -73 -80 -97 -102 -23 -22 -40 -42 -38 -45 8 -7 96 72 96
86 0 9 6 12 16 8 8 -3 13 -2 10 3 -7 10 91 118 99 110 3 -4 -6 -14 -20 -23
-14 -9 -25 -22 -25 -28 0 -7 16 3 35 22 19 19 31 36 26 39 -5 3 4 22 20 41 16
19 29 29 29 22 0 -7 4 -11 10 -7 5 3 7 11 4 18 -2 7 11 21 30 31 21 11 32 24
29 32 -3 8 2 17 11 20 9 3 16 11 16 16 0 16 59 70 69 64 5 -3 11 3 14 13 2 11
15 21 28 23 18 2 23 9 21 26 -1 17 4 25 18 29 11 3 17 9 14 14 -3 5 0 9 6 9 7
0 9 8 5 19 -8 25 11 36 32 19 14 -10 15 -10 9 0 -5 9 -1 15 14 19 12 3 19 11
16 19 -4 10 3 13 23 10 25 -3 27 0 26 25 -1 16 4 30 12 33 8 3 12 10 8 16 -3
5 6 12 20 16 14 3 25 12 25 19 0 7 15 22 33 34 17 11 27 21 21 21 -6 0 -11 7
-11 15 0 8 4 12 9 9 9 -6 48 23 48 35 0 4 -10 7 -23 9 -16 1 -39 -15 -78 -56z
m81 44 c0 -3 -4 -8 -10 -11 -5 -3 -10 -1 -10 4 0 6 5 11 10 11 6 0 10 -2 10
-4z m-157 -187 c4 -3 0 -12 -9 -20 -16 -12 -17 -12 -11 4 3 9 2 17 -4 17 -6 0
-7 5 -4 11 4 6 10 7 14 2 3 -4 10 -10 14 -14z m-155 -184 c-3 -3 -9 2 -12 12
-6 14 -5 15 5 6 7 -7 10 -15 7 -18z"/>
<path d="M1744 5097 c-10 -12 -53 -63 -94 -112 -41 -50 -87 -103 -101 -120
-54 -61 -131 -155 -126 -155 5 0 81 85 197 220 30 35 62 71 70 80 38 41 90
110 82 110 -4 0 -17 -10 -28 -23z"/>
<path d="M600 4831 c0 -5 7 -11 14 -14 10 -4 13 -1 9 9 -6 15 -23 19 -23 5z"/>
<path d="M1375 4663 c-20 -24 -23 -32 -10 -24 23 15 60 61 48 60 -4 0 -21 -17
-38 -36z"/>
<path d="M460 4655 c-7 -9 -8 -15 -2 -15 5 0 12 7 16 15 3 8 4 15 2 15 -2 0
-9 -7 -16 -15z"/>
<path d="M1320 4595 c-13 -14 -21 -27 -18 -30 2 -3 14 9 27 25 26 37 23 39 -9
5z"/>
<path d="M1244 4508 l-19 -23 23 19 c21 18 27 26 19 26 -2 0 -12 -10 -23 -22z"/>
<path d="M452 2548 l3 -353 1050 0 1050 0 0 350 0 350 -1053 3 -1052 2 2 -352z
m276 53 c1 -79 7 -140 14 -148 13 -16 110 -17 126 -1 8 8 12 56 12 150 l0 138
55 0 55 0 0 -157 0 -158 -28 -32 -28 -33 -124 0 -125 1 -37 34 -38 35 0 156 0
155 58 -3 57 -3 3 -134z m962 89 l0 -40 -65 0 -65 0 0 -145 0 -145 -55 0 -55
0 0 145 0 145 -70 0 -70 0 0 38 c0 21 2 41 4 43 2 2 88 3 190 1 l186 -3 0 -39z
m673 12 c25 -24 27 -32 27 -101 0 -71 -2 -77 -32 -108 l-32 -33 -103 0 -103 0
0 -50 0 -50 -55 0 -55 0 0 190 0 190 163 -6 c156 -6 163 -8 190 -32z"/>
<path d="M2120 2600 l0 -50 70 0 c58 0 71 3 80 19 28 54 0 81 -86 81 l-64 0 0
-50z"/>
<path d="M2917 2773 c-4 -3 -7 -44 -7 -89 l0 -83 -87 -3 -88 -3 0 -75 0 -75
88 -3 87 -3 0 -84 0 -85 80 0 80 0 0 84 0 84 79 4 c78 3 80 2 85 -22 8 -44 61
-106 110 -128 54 -26 167 -30 220 -8 88 37 136 117 136 227 0 145 -76 228
-218 237 -53 3 -84 0 -117 -12 -49 -19 -113 -78 -121 -113 -6 -22 -11 -23 -90
-23 l-84 0 0 90 0 90 -73 0 c-41 0 -77 -3 -80 -7z m618 -149 c43 -47 46 -166
6 -222 -42 -59 -144 -46 -172 21 -8 18 -14 60 -13 94 0 51 5 68 28 97 25 33
31 36 77 36 41 0 54 -5 74 -26z"/>
<path d="M3782 2508 l3 -233 60 0 60 0 3 142 3 143 41 -78 c22 -42 54 -102 70
-132 43 -80 43 -80 114 -80 l64 0 0 235 0 235 -60 0 -59 0 -3 -145 -3 -144
-75 144 -75 145 -73 0 -72 0 2 -232z"/>
<path d="M4310 2504 l0 -237 138 5 c150 6 177 13 216 55 22 23 26 37 26 84 0
46 -5 61 -25 83 -13 14 -29 26 -34 26 -6 0 1 11 14 25 20 19 25 34 25 72 0
100 -44 123 -230 123 l-130 0 0 -236z m228 134 c32 -32 5 -67 -58 -75 l-40 -6
0 47 0 46 43 0 c24 0 48 -5 55 -12z m20 -212 c4 -47 -7 -56 -70 -56 l-48 0 0
50 0 51 58 -3 57 -3 3 -39z"/>
<path d="M5025 1864 c-219 -179 -436 -372 -685 -611 -47 -45 -94 -90 -105
-100 -11 -10 -29 -29 -40 -43 -17 -21 42 29 96 80 124 120 274 254 281 252 5
-1 6 3 2 9 -5 9 -2 10 9 6 11 -4 14 -2 11 8 -4 9 4 19 20 26 14 7 26 16 26 20
0 4 9 11 20 14 11 4 18 10 15 14 -2 5 15 21 40 36 24 16 41 33 38 38 -4 6 0 8
10 4 11 -4 14 -2 11 7 -3 7 1 16 9 19 7 3 46 33 86 68 41 35 80 63 87 61 9 -2
12 3 7 14 -4 10 -2 15 3 11 6 -3 16 3 24 13 8 10 17 17 22 14 4 -3 8 0 8 6 0
6 5 8 12 4 6 -4 8 -3 5 3 -6 10 61 70 74 66 3 -1 6 5 6 13 0 8 -3 14 -6 13 -3
0 -42 -30 -86 -65z"/>
<path d="M5086 1174 c-37 -32 -29 -40 9 -9 17 13 28 25 25 28 -3 3 -18 -6 -34
-19z"/>
<path d="M5010 1110 c-19 -16 -30 -29 -23 -30 7 0 17 8 22 18 9 15 12 15 22 2
9 -13 10 -13 6 1 -3 9 0 22 6 28 22 22 0 10 -33 -19z"/>
<path d="M4150 1070 c-42 -46 -50 -61 -15 -28 21 21 37 39 35 41 -3 2 -12 -4
-20 -13z"/>
<path d="M4930 1039 l-35 -30 38 26 c33 24 43 35 34 35 -1 0 -18 -14 -37 -31z"/>
<path d="M4070 988 c-12 -22 -12 -22 6 -6 10 10 15 20 12 24 -4 3 -12 -5 -18
-18z"/>
<path d="M4855 978 c-29 -30 -29 -30 -3 -14 14 10 29 24 32 32 7 19 5 18 -29
-18z"/>
<path d="M3987 910 c-9 -11 -13 -20 -8 -20 11 0 35 29 29 35 -2 2 -12 -4 -21
-15z"/>
<path d="M4684 828 l-19 -23 23 19 c21 18 27 26 19 26 -2 0 -12 -10 -23 -22z"/>
<path d="M3909 823 c-13 -16 -12 -17 4 -4 9 7 17 15 17 17 0 8 -8 3 -21 -13z"/>
</g>
</svg>
